# xmcd
#
# Track frame offsets:
#	150
#	18252
#	44579
#	60484
#	79437
#	95289
#	112304
#	127790
#	146196
#	164003
#	188581
#	206693
#	222824
#	245248
#	266290
#	295409
#
# Disc length: 3944 seconds
#
# Revision: 1
# Processed by: cddbd v1.5.2PL0 Copyright (c) Steve Scherf et al.
# Submitted via: audiograbber 1.83.01
#
DISCID=f50f6610
DTITLE=ASK Mixed Country Vol.4, disc 2 - ASK-49-02
DYEAR=1900
DGENRE=COUNTRY
TTITLE0=ASK Mixed Country Vol.4, disc 2 - Martina McBride - 01 - How Far
TTITLE1=ASK Mixed Country Vol.4, disc 2 - Martina McBride - 02 - God's Will
TTITLE2=ASK Mixed Country Vol.4, disc 2 - Montgomery Gentry - 03 - If You Ever 
TTITLE2=Stop Loving Me
TTITLE3=ASK Mixed Country Vol.4, disc 2 - Montgomery Gentry - 04 - Gone
TTITLE4=ASK Mixed Country Vol.4, disc 2 - Phil Vassar - 05 - In A Real Love
TTITLE5=ASK Mixed Country Vol.4, disc 2 - Rachel Proctor - 06 - Me And Emily
TTITLE6=ASK Mixed Country Vol.4, disc 2 - Rascal Flatts - 07 - Feels Like Today
TTITLE7=ASK Mixed Country Vol.4, disc 2 - Rascal Flatts - 08 - Mayberry
TTITLE8=ASK Mixed Country Vol.4, disc 2 - Sara Evans - 09 - Suds In The Bucket
TTITLE9=ASK Mixed Country Vol.4, disc 2 - Sara Evans - 10 - Tonight
TTITLE10=ASK Mixed Country Vol.4, disc 2 - Shania Twain - 11 - Don't
TTITLE11=ASK Mixed Country Vol.4, disc 2 - Terri Clark - 12 - Girls Lie Too
TTITLE12=ASK Mixed Country Vol.4, disc 2 - Tim McGraw - 13 - Live Like You Were
TTITLE12=Dying
TTITLE13=ASK Mixed Country Vol.4, disc 2 - Tim McGraw - 14 - Back When
TTITLE14=ASK Mixed Country Vol.4, disc 2 - Toby Keith - 15 - Whiskey Girl
TTITLE15=ASK Mixed Country Vol.4, disc 2 - Data Track
EXTD=Karaoke Compilation
EXTT0=
EXTT1=
EXTT2=
EXTT3=
EXTT4=
EXTT5=
EXTT6=
EXTT7=
EXTT8=
EXTT9=
EXTT10=
EXTT11=
EXTT12=
EXTT13=
EXTT14=
EXTT15=
PLAYORDER=
